<svg viewBox="0 0 400 300" fill="none" xmlns="http://www.w3.org/2000/svg">
  <!-- Background decorative elements -->
  <circle cx="80" cy="60" r="4" fill="#7C3AED" opacity="0.1"/>
  <circle cx="320" cy="80" r="5" fill="#B5A7F0" opacity="0.15"/>
  <circle cx="60" cy="240" r="3" fill="#7C3AED" opacity="0.1"/>
  <circle cx="340" cy="220" r="4" fill="#B5A7F0" opacity="0.1"/>
  
  <!-- Main illustration - Friendly robot character -->
  <g transform="translate(200, 150)">
    <!-- Robot head -->
    <rect x="-50" y="-65" width="100" height="70" rx="12" fill="url(#robotGradient)" stroke="#7C3AED" stroke-width="3"/>
    
    <!-- Robot antenna -->
    <line x1="0" y1="-65" x2="0" y2="-85" stroke="#7C3AED" stroke-width="4" stroke-linecap="round"/>
    <circle cx="0" cy="-85" r="6" fill="#EF4444" opacity="0.8">
      <animate attributeName="opacity" values="0.8;0.3;0.8" dur="1.5s" repeatCount="indefinite"/>
    </circle>
    
    <!-- Robot eyes -->
    <circle cx="-20" cy="-35" r="8" fill="#1F2937"/>
    <circle cx="20" cy="-35" r="8" fill="#1F2937"/>
    <!-- Eye highlights -->
    <circle cx="-16" cy="-38" r="3" fill="white"/>
    <circle cx="24" cy="-38" r="3" fill="white"/>
    
    <!-- Robot mouth (sad expression) -->
    <path d="M -30 -10 Q 0 -5 30 -10" stroke="#1F2937" stroke-width="4" fill="none" stroke-linecap="round"/>
    
    <!-- Robot body -->
    <rect x="-45" y="5" width="90" height="70" rx="12" fill="url(#robotGradient)" stroke="#7C3AED" stroke-width="3"/>
    
    <!-- Robot chest panel -->
    <rect x="-30" y="20" width="60" height="45" rx="6" fill="#1F2937" opacity="0.8"/>
    <circle cx="0" cy="42" r="5" fill="#EF4444" opacity="0.7">
      <animate attributeName="opacity" values="0.7;0.2;0.7" dur="2s" repeatCount="indefinite"/>
    </circle>
    
    <!-- Robot arms -->
    <rect x="-70" y="10" width="20" height="45" rx="10" fill="url(#robotGradient)" stroke="#7C3AED" stroke-width="3" transform="rotate(-15 -70 10)"/>
    <rect x="50" y="10" width="20" height="45" rx="10" fill="url(#robotGradient)" stroke="#7C3AED" stroke-width="3" transform="rotate(15 50 10)"/>
    
    <!-- Robot hands -->
    <circle cx="-75" cy="45" r="6" fill="url(#robotGradient)" stroke="#7C3AED" stroke-width="3"/>
    <circle cx="75" cy="45" r="6" fill="url(#robotGradient)" stroke="#7C3AED" stroke-width="3"/>
    
    <!-- Robot legs -->
    <rect x="-30" y="75" width="20" height="55" rx="10" fill="url(#robotGradient)" stroke="#7C3AED" stroke-width="3"/>
    <rect x="10" y="75" width="20" height="55" rx="10" fill="url(#robotGradient)" stroke="#7C3AED" stroke-width="3"/>
    
    <!-- Robot feet -->
    <ellipse cx="-20" cy="135" rx="12" ry="6" fill="url(#robotGradient)" stroke="#7C3AED" stroke-width="3"/>
    <ellipse cx="20" cy="135" rx="12" ry="6" fill="url(#robotGradient)" stroke="#7C3AED" stroke-width="3"/>
    
    <!-- Floating error symbols around robot -->
    <g opacity="0.7">
      <circle cx="-100" cy="-40" r="6" fill="#EF4444">
        <animate attributeName="cy" values="-40;-35;-40" dur="2s" repeatCount="indefinite"/>
      </circle>
      <circle cx="100" cy="-40" r="6" fill="#EF4444">
        <animate attributeName="cy" values="-40;-35;-40" dur="2s" repeatCount="indefinite"/>
      </circle>
      <circle cx="-100" cy="40" r="6" fill="#EF4444">
        <animate attributeName="cy" values="40;35;40" dur="2s" repeatCount="indefinite"/>
      </circle>
      <circle cx="100" cy="40" r="6" fill="#EF4444">
        <animate attributeName="cy" values="40;35;40" dur="2s" repeatCount="indefinite"/>
      </circle>
    </g>
    
    <!-- Error sparks -->
    <g stroke="#F59E0B" stroke-width="3" fill="none" opacity="0.8">
      <path d="M -85 -30 L -80 -25 M -80 -30 L -75 -25" stroke-linecap="round">
        <animate attributeName="opacity" values="0.8;0.2;0.8" dur="1s" repeatCount="indefinite"/>
      </path>
      <path d="M 85 -30 L 80 -25 M 80 -30 L 75 -25" stroke-linecap="round">
        <animate attributeName="opacity" values="0.8;0.2;0.8" dur="1s" repeatCount="indefinite"/>
      </path>
    </g>
  </g>
  
  <!-- Stars above robot -->
  <g transform="translate(200, 30)">
    <!-- Star 1 - left, higher -->
    <g fill="#FFD700" opacity="0.8">
      <path d="M -40 -15 L -38 -10 L -33 -10 L -36 -5 L -35 0 L -40 -3 L -45 0 L -44 -5 L -47 -10 L -42 -10 Z"/>
    </g>
    
    <!-- Star 2 - right, lower -->
    <g fill="#FFD700" opacity="0.7">
      <path d="M 50 -5 L 52 0 L 57 0 L 54 5 L 55 10 L 50 7 L 45 10 L 46 5 L 43 0 L 48 0 Z"/>
    </g>
  </g>
  
  <!-- Saturn above stars -->
  <g transform="translate(200, 20)">
    <!-- Saturn planet -->
    <circle cx="0" cy="0" r="12" fill="#F4A460" opacity="0.9"/>
    
    <!-- Saturn rings -->
    <ellipse cx="0" cy="0" rx="18" ry="4" fill="none" stroke="#D2B48C" stroke-width="2" opacity="0.8"/>
    <ellipse cx="0" cy="0" rx="20" ry="3" fill="none" stroke="#D2B48C" stroke-width="1" opacity="0.6"/>
    <ellipse cx="0" cy="0" rx="16" ry="3" fill="none" stroke="#D2B48C" stroke-width="1" opacity="0.7"/>
  </g>
  
  <!-- Gradient definitions -->
  <defs>
    <linearGradient id="robotGradient" x1="0%" y1="0%" x2="100%" y2="100%">
      <stop offset="0%" stop-color="#F3F4F6"/>
      <stop offset="50%" stop-color="#E5E7EB"/>
      <stop offset="100%" stop-color="#D1D5DB"/>
    </linearGradient>
  </defs>
</svg>
